<mxfile host="app.diagrams.net" modified="2023-10-10T03:37:08.199Z" agent="Mozilla/5.0 (Windows NT 10.0; Win64; x64) AppleWebKit/537.36 (KHTML, like Gecko) Chrome/117.0.0.0 Safari/537.36" etag="QuKxR__TI1nkWpuRKTsG" version="22.0.4" type="github">
  <diagram id="prtHgNgQTEPvFCAcTncT" name="Page-1">
    <mxGraphModel dx="1687" dy="929" grid="1" gridSize="10" guides="1" tooltips="1" connect="1" arrows="1" fold="1" page="1" pageScale="1" pageWidth="827" pageHeight="1169" math="0" shadow="0">
      <root>
        <mxCell id="0" />
        <mxCell id="1" parent="0" />
        <mxCell id="o9QMIviWaqzwO_FaFgC8-51" style="edgeStyle=orthogonalEdgeStyle;rounded=0;orthogonalLoop=1;jettySize=auto;html=1;entryX=0.5;entryY=0;entryDx=0;entryDy=0;" parent="1" source="o9QMIviWaqzwO_FaFgC8-1" target="o9QMIviWaqzwO_FaFgC8-41" edge="1">
          <mxGeometry relative="1" as="geometry" />
        </mxCell>
        <mxCell id="o9QMIviWaqzwO_FaFgC8-52" style="edgeStyle=orthogonalEdgeStyle;rounded=0;orthogonalLoop=1;jettySize=auto;html=1;entryX=0.5;entryY=0;entryDx=0;entryDy=0;" parent="1" source="o9QMIviWaqzwO_FaFgC8-1" target="o9QMIviWaqzwO_FaFgC8-11" edge="1">
          <mxGeometry relative="1" as="geometry" />
        </mxCell>
        <mxCell id="o9QMIviWaqzwO_FaFgC8-53" style="edgeStyle=orthogonalEdgeStyle;rounded=0;orthogonalLoop=1;jettySize=auto;html=1;" parent="1" source="o9QMIviWaqzwO_FaFgC8-1" target="o9QMIviWaqzwO_FaFgC8-21" edge="1">
          <mxGeometry relative="1" as="geometry" />
        </mxCell>
        <mxCell id="o9QMIviWaqzwO_FaFgC8-11" value="tb_policy_user_member" style="shape=table;startSize=30;container=1;collapsible=0;childLayout=tableLayout;fixedRows=1;rowLines=0;fontStyle=0;strokeColor=default;fontSize=16;" parent="1" vertex="1">
          <mxGeometry x="620" y="160" width="186" height="120" as="geometry" />
        </mxCell>
        <mxCell id="o9QMIviWaqzwO_FaFgC8-12" value="" style="shape=tableRow;horizontal=0;startSize=0;swimlaneHead=0;swimlaneBody=0;top=0;left=0;bottom=0;right=0;collapsible=0;dropTarget=0;fillColor=none;points=[[0,0.5],[1,0.5]];portConstraint=eastwest;strokeColor=inherit;fontSize=16;" parent="o9QMIviWaqzwO_FaFgC8-11" vertex="1">
          <mxGeometry y="30" width="186" height="30" as="geometry" />
        </mxCell>
        <mxCell id="o9QMIviWaqzwO_FaFgC8-13" value="1" style="shape=partialRectangle;html=1;whiteSpace=wrap;connectable=0;fillColor=none;top=0;left=0;bottom=0;right=0;overflow=hidden;pointerEvents=1;strokeColor=inherit;fontSize=16;" parent="o9QMIviWaqzwO_FaFgC8-12" vertex="1">
          <mxGeometry width="41" height="30" as="geometry">
            <mxRectangle width="41" height="30" as="alternateBounds" />
          </mxGeometry>
        </mxCell>
        <mxCell id="o9QMIviWaqzwO_FaFgC8-14" value="id" style="shape=partialRectangle;html=1;whiteSpace=wrap;connectable=0;fillColor=none;top=0;left=0;bottom=0;right=0;align=left;spacingLeft=6;overflow=hidden;strokeColor=inherit;fontSize=16;" parent="o9QMIviWaqzwO_FaFgC8-12" vertex="1">
          <mxGeometry x="41" width="145" height="30" as="geometry">
            <mxRectangle width="145" height="30" as="alternateBounds" />
          </mxGeometry>
        </mxCell>
        <mxCell id="o9QMIviWaqzwO_FaFgC8-15" value="" style="shape=tableRow;horizontal=0;startSize=0;swimlaneHead=0;swimlaneBody=0;top=0;left=0;bottom=0;right=0;collapsible=0;dropTarget=0;fillColor=none;points=[[0,0.5],[1,0.5]];portConstraint=eastwest;strokeColor=inherit;fontSize=16;" parent="o9QMIviWaqzwO_FaFgC8-11" vertex="1">
          <mxGeometry y="60" width="186" height="30" as="geometry" />
        </mxCell>
        <mxCell id="o9QMIviWaqzwO_FaFgC8-16" value="2" style="shape=partialRectangle;html=1;whiteSpace=wrap;connectable=0;fillColor=none;top=0;left=0;bottom=0;right=0;overflow=hidden;strokeColor=inherit;fontSize=16;" parent="o9QMIviWaqzwO_FaFgC8-15" vertex="1">
          <mxGeometry width="41" height="30" as="geometry">
            <mxRectangle width="41" height="30" as="alternateBounds" />
          </mxGeometry>
        </mxCell>
        <mxCell id="o9QMIviWaqzwO_FaFgC8-17" value="name 被保人姓名" style="shape=partialRectangle;html=1;whiteSpace=wrap;connectable=0;fillColor=none;top=0;left=0;bottom=0;right=0;align=left;spacingLeft=6;overflow=hidden;strokeColor=inherit;fontSize=16;" parent="o9QMIviWaqzwO_FaFgC8-15" vertex="1">
          <mxGeometry x="41" width="145" height="30" as="geometry">
            <mxRectangle width="145" height="30" as="alternateBounds" />
          </mxGeometry>
        </mxCell>
        <mxCell id="o9QMIviWaqzwO_FaFgC8-18" value="" style="shape=tableRow;horizontal=0;startSize=0;swimlaneHead=0;swimlaneBody=0;top=0;left=0;bottom=0;right=0;collapsible=0;dropTarget=0;fillColor=none;points=[[0,0.5],[1,0.5]];portConstraint=eastwest;strokeColor=inherit;fontSize=16;" parent="o9QMIviWaqzwO_FaFgC8-11" vertex="1">
          <mxGeometry y="90" width="186" height="30" as="geometry" />
        </mxCell>
        <mxCell id="o9QMIviWaqzwO_FaFgC8-19" value="3" style="shape=partialRectangle;html=1;whiteSpace=wrap;connectable=0;fillColor=none;top=0;left=0;bottom=0;right=0;overflow=hidden;strokeColor=inherit;fontSize=16;" parent="o9QMIviWaqzwO_FaFgC8-18" vertex="1">
          <mxGeometry width="41" height="30" as="geometry">
            <mxRectangle width="41" height="30" as="alternateBounds" />
          </mxGeometry>
        </mxCell>
        <mxCell id="o9QMIviWaqzwO_FaFgC8-20" value="user_id" style="shape=partialRectangle;html=1;whiteSpace=wrap;connectable=0;fillColor=none;top=0;left=0;bottom=0;right=0;align=left;spacingLeft=6;overflow=hidden;strokeColor=inherit;fontSize=16;" parent="o9QMIviWaqzwO_FaFgC8-18" vertex="1">
          <mxGeometry x="41" width="145" height="30" as="geometry">
            <mxRectangle width="145" height="30" as="alternateBounds" />
          </mxGeometry>
        </mxCell>
        <mxCell id="o9QMIviWaqzwO_FaFgC8-100" style="edgeStyle=orthogonalEdgeStyle;rounded=0;orthogonalLoop=1;jettySize=auto;html=1;" parent="1" source="o9QMIviWaqzwO_FaFgC8-21" target="o9QMIviWaqzwO_FaFgC8-94" edge="1">
          <mxGeometry relative="1" as="geometry">
            <Array as="points">
              <mxPoint x="680" y="580" />
              <mxPoint x="680" y="520" />
            </Array>
          </mxGeometry>
        </mxCell>
        <mxCell id="o9QMIviWaqzwO_FaFgC8-111" style="edgeStyle=orthogonalEdgeStyle;rounded=0;orthogonalLoop=1;jettySize=auto;html=1;" parent="1" source="o9QMIviWaqzwO_FaFgC8-21" target="o9QMIviWaqzwO_FaFgC8-101" edge="1">
          <mxGeometry relative="1" as="geometry" />
        </mxCell>
        <mxCell id="o9QMIviWaqzwO_FaFgC8-21" value="tb_policy_detail" style="shape=table;startSize=30;container=1;collapsible=0;childLayout=tableLayout;fixedRows=1;rowLines=0;fontStyle=0;strokeColor=default;fontSize=16;" parent="1" vertex="1">
          <mxGeometry x="450" y="520" width="180" height="120" as="geometry" />
        </mxCell>
        <mxCell id="o9QMIviWaqzwO_FaFgC8-22" value="" style="shape=tableRow;horizontal=0;startSize=0;swimlaneHead=0;swimlaneBody=0;top=0;left=0;bottom=0;right=0;collapsible=0;dropTarget=0;fillColor=none;points=[[0,0.5],[1,0.5]];portConstraint=eastwest;strokeColor=inherit;fontSize=16;" parent="o9QMIviWaqzwO_FaFgC8-21" vertex="1">
          <mxGeometry y="30" width="180" height="30" as="geometry" />
        </mxCell>
        <mxCell id="o9QMIviWaqzwO_FaFgC8-23" value="1" style="shape=partialRectangle;html=1;whiteSpace=wrap;connectable=0;fillColor=none;top=0;left=0;bottom=0;right=0;overflow=hidden;pointerEvents=1;strokeColor=inherit;fontSize=16;" parent="o9QMIviWaqzwO_FaFgC8-22" vertex="1">
          <mxGeometry width="40" height="30" as="geometry">
            <mxRectangle width="40" height="30" as="alternateBounds" />
          </mxGeometry>
        </mxCell>
        <mxCell id="o9QMIviWaqzwO_FaFgC8-24" value="id" style="shape=partialRectangle;html=1;whiteSpace=wrap;connectable=0;fillColor=none;top=0;left=0;bottom=0;right=0;align=left;spacingLeft=6;overflow=hidden;strokeColor=inherit;fontSize=16;" parent="o9QMIviWaqzwO_FaFgC8-22" vertex="1">
          <mxGeometry x="40" width="140" height="30" as="geometry">
            <mxRectangle width="140" height="30" as="alternateBounds" />
          </mxGeometry>
        </mxCell>
        <mxCell id="o9QMIviWaqzwO_FaFgC8-25" value="" style="shape=tableRow;horizontal=0;startSize=0;swimlaneHead=0;swimlaneBody=0;top=0;left=0;bottom=0;right=0;collapsible=0;dropTarget=0;fillColor=none;points=[[0,0.5],[1,0.5]];portConstraint=eastwest;strokeColor=inherit;fontSize=16;" parent="o9QMIviWaqzwO_FaFgC8-21" vertex="1">
          <mxGeometry y="60" width="180" height="30" as="geometry" />
        </mxCell>
        <mxCell id="o9QMIviWaqzwO_FaFgC8-26" value="2" style="shape=partialRectangle;html=1;whiteSpace=wrap;connectable=0;fillColor=none;top=0;left=0;bottom=0;right=0;overflow=hidden;strokeColor=inherit;fontSize=16;" parent="o9QMIviWaqzwO_FaFgC8-25" vertex="1">
          <mxGeometry width="40" height="30" as="geometry">
            <mxRectangle width="40" height="30" as="alternateBounds" />
          </mxGeometry>
        </mxCell>
        <mxCell id="o9QMIviWaqzwO_FaFgC8-27" value="policy_no" style="shape=partialRectangle;html=1;whiteSpace=wrap;connectable=0;fillColor=none;top=0;left=0;bottom=0;right=0;align=left;spacingLeft=6;overflow=hidden;strokeColor=inherit;fontSize=16;" parent="o9QMIviWaqzwO_FaFgC8-25" vertex="1">
          <mxGeometry x="40" width="140" height="30" as="geometry">
            <mxRectangle width="140" height="30" as="alternateBounds" />
          </mxGeometry>
        </mxCell>
        <mxCell id="o9QMIviWaqzwO_FaFgC8-28" value="" style="shape=tableRow;horizontal=0;startSize=0;swimlaneHead=0;swimlaneBody=0;top=0;left=0;bottom=0;right=0;collapsible=0;dropTarget=0;fillColor=none;points=[[0,0.5],[1,0.5]];portConstraint=eastwest;strokeColor=inherit;fontSize=16;" parent="o9QMIviWaqzwO_FaFgC8-21" vertex="1">
          <mxGeometry y="90" width="180" height="30" as="geometry" />
        </mxCell>
        <mxCell id="o9QMIviWaqzwO_FaFgC8-29" value="3" style="shape=partialRectangle;html=1;whiteSpace=wrap;connectable=0;fillColor=none;top=0;left=0;bottom=0;right=0;overflow=hidden;strokeColor=inherit;fontSize=16;" parent="o9QMIviWaqzwO_FaFgC8-28" vertex="1">
          <mxGeometry width="40" height="30" as="geometry">
            <mxRectangle width="40" height="30" as="alternateBounds" />
          </mxGeometry>
        </mxCell>
        <mxCell id="o9QMIviWaqzwO_FaFgC8-30" value="ins_type" style="shape=partialRectangle;html=1;whiteSpace=wrap;connectable=0;fillColor=none;top=0;left=0;bottom=0;right=0;align=left;spacingLeft=6;overflow=hidden;strokeColor=inherit;fontSize=16;" parent="o9QMIviWaqzwO_FaFgC8-28" vertex="1">
          <mxGeometry x="40" width="140" height="30" as="geometry">
            <mxRectangle width="140" height="30" as="alternateBounds" />
          </mxGeometry>
        </mxCell>
        <mxCell id="o9QMIviWaqzwO_FaFgC8-41" value="tb_weapp_user" style="shape=table;startSize=30;container=1;collapsible=0;childLayout=tableLayout;fixedRows=1;rowLines=0;fontStyle=0;strokeColor=default;fontSize=16;" parent="1" vertex="1">
          <mxGeometry x="20" y="330" width="186" height="120" as="geometry" />
        </mxCell>
        <mxCell id="o9QMIviWaqzwO_FaFgC8-42" value="" style="shape=tableRow;horizontal=0;startSize=0;swimlaneHead=0;swimlaneBody=0;top=0;left=0;bottom=0;right=0;collapsible=0;dropTarget=0;fillColor=none;points=[[0,0.5],[1,0.5]];portConstraint=eastwest;strokeColor=inherit;fontSize=16;" parent="o9QMIviWaqzwO_FaFgC8-41" vertex="1">
          <mxGeometry y="30" width="186" height="30" as="geometry" />
        </mxCell>
        <mxCell id="o9QMIviWaqzwO_FaFgC8-43" value="1" style="shape=partialRectangle;html=1;whiteSpace=wrap;connectable=0;fillColor=none;top=0;left=0;bottom=0;right=0;overflow=hidden;pointerEvents=1;strokeColor=inherit;fontSize=16;" parent="o9QMIviWaqzwO_FaFgC8-42" vertex="1">
          <mxGeometry width="41" height="30" as="geometry">
            <mxRectangle width="41" height="30" as="alternateBounds" />
          </mxGeometry>
        </mxCell>
        <mxCell id="o9QMIviWaqzwO_FaFgC8-44" value="id" style="shape=partialRectangle;html=1;whiteSpace=wrap;connectable=0;fillColor=none;top=0;left=0;bottom=0;right=0;align=left;spacingLeft=6;overflow=hidden;strokeColor=inherit;fontSize=16;" parent="o9QMIviWaqzwO_FaFgC8-42" vertex="1">
          <mxGeometry x="41" width="145" height="30" as="geometry">
            <mxRectangle width="145" height="30" as="alternateBounds" />
          </mxGeometry>
        </mxCell>
        <mxCell id="o9QMIviWaqzwO_FaFgC8-45" value="" style="shape=tableRow;horizontal=0;startSize=0;swimlaneHead=0;swimlaneBody=0;top=0;left=0;bottom=0;right=0;collapsible=0;dropTarget=0;fillColor=none;points=[[0,0.5],[1,0.5]];portConstraint=eastwest;strokeColor=inherit;fontSize=16;" parent="o9QMIviWaqzwO_FaFgC8-41" vertex="1">
          <mxGeometry y="60" width="186" height="30" as="geometry" />
        </mxCell>
        <mxCell id="o9QMIviWaqzwO_FaFgC8-46" value="2" style="shape=partialRectangle;html=1;whiteSpace=wrap;connectable=0;fillColor=none;top=0;left=0;bottom=0;right=0;overflow=hidden;strokeColor=inherit;fontSize=16;" parent="o9QMIviWaqzwO_FaFgC8-45" vertex="1">
          <mxGeometry width="41" height="30" as="geometry">
            <mxRectangle width="41" height="30" as="alternateBounds" />
          </mxGeometry>
        </mxCell>
        <mxCell id="o9QMIviWaqzwO_FaFgC8-47" value="openid" style="shape=partialRectangle;html=1;whiteSpace=wrap;connectable=0;fillColor=none;top=0;left=0;bottom=0;right=0;align=left;spacingLeft=6;overflow=hidden;strokeColor=inherit;fontSize=16;" parent="o9QMIviWaqzwO_FaFgC8-45" vertex="1">
          <mxGeometry x="41" width="145" height="30" as="geometry">
            <mxRectangle width="145" height="30" as="alternateBounds" />
          </mxGeometry>
        </mxCell>
        <mxCell id="o9QMIviWaqzwO_FaFgC8-48" value="" style="shape=tableRow;horizontal=0;startSize=0;swimlaneHead=0;swimlaneBody=0;top=0;left=0;bottom=0;right=0;collapsible=0;dropTarget=0;fillColor=none;points=[[0,0.5],[1,0.5]];portConstraint=eastwest;strokeColor=inherit;fontSize=16;" parent="o9QMIviWaqzwO_FaFgC8-41" vertex="1">
          <mxGeometry y="90" width="186" height="30" as="geometry" />
        </mxCell>
        <mxCell id="o9QMIviWaqzwO_FaFgC8-49" value="3" style="shape=partialRectangle;html=1;whiteSpace=wrap;connectable=0;fillColor=none;top=0;left=0;bottom=0;right=0;overflow=hidden;strokeColor=inherit;fontSize=16;" parent="o9QMIviWaqzwO_FaFgC8-48" vertex="1">
          <mxGeometry width="41" height="30" as="geometry">
            <mxRectangle width="41" height="30" as="alternateBounds" />
          </mxGeometry>
        </mxCell>
        <mxCell id="o9QMIviWaqzwO_FaFgC8-50" value="nickname" style="shape=partialRectangle;html=1;whiteSpace=wrap;connectable=0;fillColor=none;top=0;left=0;bottom=0;right=0;align=left;spacingLeft=6;overflow=hidden;strokeColor=inherit;fontSize=16;" parent="o9QMIviWaqzwO_FaFgC8-48" vertex="1">
          <mxGeometry x="41" width="145" height="30" as="geometry">
            <mxRectangle width="145" height="30" as="alternateBounds" />
          </mxGeometry>
        </mxCell>
        <mxCell id="o9QMIviWaqzwO_FaFgC8-1" value="tb_policy_rel" style="shape=table;startSize=30;container=1;collapsible=0;childLayout=tableLayout;fixedRows=1;rowLines=0;fontStyle=0;strokeColor=default;fontSize=16;" parent="1" vertex="1">
          <mxGeometry x="310" y="270" width="190" height="150" as="geometry" />
        </mxCell>
        <mxCell id="o9QMIviWaqzwO_FaFgC8-2" value="" style="shape=tableRow;horizontal=0;startSize=0;swimlaneHead=0;swimlaneBody=0;top=0;left=0;bottom=0;right=0;collapsible=0;dropTarget=0;fillColor=none;points=[[0,0.5],[1,0.5]];portConstraint=eastwest;strokeColor=inherit;fontSize=16;" parent="o9QMIviWaqzwO_FaFgC8-1" vertex="1">
          <mxGeometry y="30" width="190" height="30" as="geometry" />
        </mxCell>
        <mxCell id="o9QMIviWaqzwO_FaFgC8-3" value="1" style="shape=partialRectangle;html=1;whiteSpace=wrap;connectable=0;fillColor=none;top=0;left=0;bottom=0;right=0;overflow=hidden;pointerEvents=1;strokeColor=inherit;fontSize=16;" parent="o9QMIviWaqzwO_FaFgC8-2" vertex="1">
          <mxGeometry width="42" height="30" as="geometry">
            <mxRectangle width="42" height="30" as="alternateBounds" />
          </mxGeometry>
        </mxCell>
        <mxCell id="o9QMIviWaqzwO_FaFgC8-4" value="user_id 投保人" style="shape=partialRectangle;html=1;whiteSpace=wrap;connectable=0;fillColor=none;top=0;left=0;bottom=0;right=0;align=left;spacingLeft=6;overflow=hidden;strokeColor=inherit;fontSize=16;" parent="o9QMIviWaqzwO_FaFgC8-2" vertex="1">
          <mxGeometry x="42" width="148" height="30" as="geometry">
            <mxRectangle width="148" height="30" as="alternateBounds" />
          </mxGeometry>
        </mxCell>
        <mxCell id="o9QMIviWaqzwO_FaFgC8-5" value="" style="shape=tableRow;horizontal=0;startSize=0;swimlaneHead=0;swimlaneBody=0;top=0;left=0;bottom=0;right=0;collapsible=0;dropTarget=0;fillColor=none;points=[[0,0.5],[1,0.5]];portConstraint=eastwest;strokeColor=inherit;fontSize=16;" parent="o9QMIviWaqzwO_FaFgC8-1" vertex="1">
          <mxGeometry y="60" width="190" height="30" as="geometry" />
        </mxCell>
        <mxCell id="o9QMIviWaqzwO_FaFgC8-6" value="2" style="shape=partialRectangle;html=1;whiteSpace=wrap;connectable=0;fillColor=none;top=0;left=0;bottom=0;right=0;overflow=hidden;strokeColor=inherit;fontSize=16;" parent="o9QMIviWaqzwO_FaFgC8-5" vertex="1">
          <mxGeometry width="42" height="30" as="geometry">
            <mxRectangle width="42" height="30" as="alternateBounds" />
          </mxGeometry>
        </mxCell>
        <mxCell id="o9QMIviWaqzwO_FaFgC8-7" value="member_id 被保人" style="shape=partialRectangle;html=1;whiteSpace=wrap;connectable=0;fillColor=none;top=0;left=0;bottom=0;right=0;align=left;spacingLeft=6;overflow=hidden;strokeColor=inherit;fontSize=16;" parent="o9QMIviWaqzwO_FaFgC8-5" vertex="1">
          <mxGeometry x="42" width="148" height="30" as="geometry">
            <mxRectangle width="148" height="30" as="alternateBounds" />
          </mxGeometry>
        </mxCell>
        <mxCell id="o9QMIviWaqzwO_FaFgC8-8" value="" style="shape=tableRow;horizontal=0;startSize=0;swimlaneHead=0;swimlaneBody=0;top=0;left=0;bottom=0;right=0;collapsible=0;dropTarget=0;fillColor=none;points=[[0,0.5],[1,0.5]];portConstraint=eastwest;strokeColor=inherit;fontSize=16;" parent="o9QMIviWaqzwO_FaFgC8-1" vertex="1">
          <mxGeometry y="90" width="190" height="30" as="geometry" />
        </mxCell>
        <mxCell id="o9QMIviWaqzwO_FaFgC8-9" value="3" style="shape=partialRectangle;html=1;whiteSpace=wrap;connectable=0;fillColor=none;top=0;left=0;bottom=0;right=0;overflow=hidden;strokeColor=inherit;fontSize=16;" parent="o9QMIviWaqzwO_FaFgC8-8" vertex="1">
          <mxGeometry width="42" height="30" as="geometry">
            <mxRectangle width="42" height="30" as="alternateBounds" />
          </mxGeometry>
        </mxCell>
        <mxCell id="o9QMIviWaqzwO_FaFgC8-10" value="detail_id 保单详情" style="shape=partialRectangle;html=1;whiteSpace=wrap;connectable=0;fillColor=none;top=0;left=0;bottom=0;right=0;align=left;spacingLeft=6;overflow=hidden;strokeColor=inherit;fontSize=16;" parent="o9QMIviWaqzwO_FaFgC8-8" vertex="1">
          <mxGeometry x="42" width="148" height="30" as="geometry">
            <mxRectangle width="148" height="30" as="alternateBounds" />
          </mxGeometry>
        </mxCell>
        <mxCell id="o9QMIviWaqzwO_FaFgC8-54" value="" style="shape=tableRow;horizontal=0;startSize=0;swimlaneHead=0;swimlaneBody=0;top=0;left=0;bottom=0;right=0;collapsible=0;dropTarget=0;fillColor=none;points=[[0,0.5],[1,0.5]];portConstraint=eastwest;strokeColor=inherit;fontSize=16;" parent="o9QMIviWaqzwO_FaFgC8-1" vertex="1">
          <mxGeometry y="120" width="190" height="30" as="geometry" />
        </mxCell>
        <mxCell id="o9QMIviWaqzwO_FaFgC8-55" value="4" style="shape=partialRectangle;html=1;whiteSpace=wrap;connectable=0;fillColor=none;top=0;left=0;bottom=0;right=0;overflow=hidden;strokeColor=inherit;fontSize=16;" parent="o9QMIviWaqzwO_FaFgC8-54" vertex="1">
          <mxGeometry width="42" height="30" as="geometry">
            <mxRectangle width="42" height="30" as="alternateBounds" />
          </mxGeometry>
        </mxCell>
        <mxCell id="o9QMIviWaqzwO_FaFgC8-56" value="policy_id 电子保单" style="shape=partialRectangle;html=1;whiteSpace=wrap;connectable=0;fillColor=none;top=0;left=0;bottom=0;right=0;align=left;spacingLeft=6;overflow=hidden;strokeColor=inherit;fontSize=16;" parent="o9QMIviWaqzwO_FaFgC8-54" vertex="1">
          <mxGeometry x="42" width="148" height="30" as="geometry">
            <mxRectangle width="148" height="30" as="alternateBounds" />
          </mxGeometry>
        </mxCell>
        <mxCell id="o9QMIviWaqzwO_FaFgC8-71" style="edgeStyle=orthogonalEdgeStyle;rounded=0;orthogonalLoop=1;jettySize=auto;html=1;" parent="1" source="o9QMIviWaqzwO_FaFgC8-57" target="o9QMIviWaqzwO_FaFgC8-1" edge="1">
          <mxGeometry relative="1" as="geometry" />
        </mxCell>
        <mxCell id="o9QMIviWaqzwO_FaFgC8-57" value="tb_policy_pic" style="shape=table;startSize=30;container=1;collapsible=0;childLayout=tableLayout;fixedRows=1;rowLines=0;fontStyle=0;strokeColor=default;fontSize=16;" parent="1" vertex="1">
          <mxGeometry x="120" y="40" width="190" height="150" as="geometry" />
        </mxCell>
        <mxCell id="o9QMIviWaqzwO_FaFgC8-58" value="" style="shape=tableRow;horizontal=0;startSize=0;swimlaneHead=0;swimlaneBody=0;top=0;left=0;bottom=0;right=0;collapsible=0;dropTarget=0;fillColor=none;points=[[0,0.5],[1,0.5]];portConstraint=eastwest;strokeColor=inherit;fontSize=16;" parent="o9QMIviWaqzwO_FaFgC8-57" vertex="1">
          <mxGeometry y="30" width="190" height="30" as="geometry" />
        </mxCell>
        <mxCell id="o9QMIviWaqzwO_FaFgC8-59" value="1" style="shape=partialRectangle;html=1;whiteSpace=wrap;connectable=0;fillColor=none;top=0;left=0;bottom=0;right=0;overflow=hidden;pointerEvents=1;strokeColor=inherit;fontSize=16;" parent="o9QMIviWaqzwO_FaFgC8-58" vertex="1">
          <mxGeometry width="42" height="30" as="geometry">
            <mxRectangle width="42" height="30" as="alternateBounds" />
          </mxGeometry>
        </mxCell>
        <mxCell id="o9QMIviWaqzwO_FaFgC8-60" value="id" style="shape=partialRectangle;html=1;whiteSpace=wrap;connectable=0;fillColor=none;top=0;left=0;bottom=0;right=0;align=left;spacingLeft=6;overflow=hidden;strokeColor=inherit;fontSize=16;" parent="o9QMIviWaqzwO_FaFgC8-58" vertex="1">
          <mxGeometry x="42" width="148" height="30" as="geometry">
            <mxRectangle width="148" height="30" as="alternateBounds" />
          </mxGeometry>
        </mxCell>
        <mxCell id="o9QMIviWaqzwO_FaFgC8-61" value="" style="shape=tableRow;horizontal=0;startSize=0;swimlaneHead=0;swimlaneBody=0;top=0;left=0;bottom=0;right=0;collapsible=0;dropTarget=0;fillColor=none;points=[[0,0.5],[1,0.5]];portConstraint=eastwest;strokeColor=inherit;fontSize=16;" parent="o9QMIviWaqzwO_FaFgC8-57" vertex="1">
          <mxGeometry y="60" width="190" height="30" as="geometry" />
        </mxCell>
        <mxCell id="o9QMIviWaqzwO_FaFgC8-62" value="2" style="shape=partialRectangle;html=1;whiteSpace=wrap;connectable=0;fillColor=none;top=0;left=0;bottom=0;right=0;overflow=hidden;strokeColor=inherit;fontSize=16;" parent="o9QMIviWaqzwO_FaFgC8-61" vertex="1">
          <mxGeometry width="42" height="30" as="geometry">
            <mxRectangle width="42" height="30" as="alternateBounds" />
          </mxGeometry>
        </mxCell>
        <mxCell id="o9QMIviWaqzwO_FaFgC8-63" value="policy_rel_id" style="shape=partialRectangle;html=1;whiteSpace=wrap;connectable=0;fillColor=none;top=0;left=0;bottom=0;right=0;align=left;spacingLeft=6;overflow=hidden;strokeColor=inherit;fontSize=16;" parent="o9QMIviWaqzwO_FaFgC8-61" vertex="1">
          <mxGeometry x="42" width="148" height="30" as="geometry">
            <mxRectangle width="148" height="30" as="alternateBounds" />
          </mxGeometry>
        </mxCell>
        <mxCell id="o9QMIviWaqzwO_FaFgC8-64" value="" style="shape=tableRow;horizontal=0;startSize=0;swimlaneHead=0;swimlaneBody=0;top=0;left=0;bottom=0;right=0;collapsible=0;dropTarget=0;fillColor=none;points=[[0,0.5],[1,0.5]];portConstraint=eastwest;strokeColor=inherit;fontSize=16;" parent="o9QMIviWaqzwO_FaFgC8-57" vertex="1">
          <mxGeometry y="90" width="190" height="30" as="geometry" />
        </mxCell>
        <mxCell id="o9QMIviWaqzwO_FaFgC8-65" value="3" style="shape=partialRectangle;html=1;whiteSpace=wrap;connectable=0;fillColor=none;top=0;left=0;bottom=0;right=0;overflow=hidden;strokeColor=inherit;fontSize=16;" parent="o9QMIviWaqzwO_FaFgC8-64" vertex="1">
          <mxGeometry width="42" height="30" as="geometry">
            <mxRectangle width="42" height="30" as="alternateBounds" />
          </mxGeometry>
        </mxCell>
        <mxCell id="o9QMIviWaqzwO_FaFgC8-66" value="policy_pic" style="shape=partialRectangle;html=1;whiteSpace=wrap;connectable=0;fillColor=none;top=0;left=0;bottom=0;right=0;align=left;spacingLeft=6;overflow=hidden;strokeColor=inherit;fontSize=16;" parent="o9QMIviWaqzwO_FaFgC8-64" vertex="1">
          <mxGeometry x="42" width="148" height="30" as="geometry">
            <mxRectangle width="148" height="30" as="alternateBounds" />
          </mxGeometry>
        </mxCell>
        <mxCell id="o9QMIviWaqzwO_FaFgC8-67" value="" style="shape=tableRow;horizontal=0;startSize=0;swimlaneHead=0;swimlaneBody=0;top=0;left=0;bottom=0;right=0;collapsible=0;dropTarget=0;fillColor=none;points=[[0,0.5],[1,0.5]];portConstraint=eastwest;strokeColor=inherit;fontSize=16;" parent="o9QMIviWaqzwO_FaFgC8-57" vertex="1">
          <mxGeometry y="120" width="190" height="30" as="geometry" />
        </mxCell>
        <mxCell id="o9QMIviWaqzwO_FaFgC8-68" value="4" style="shape=partialRectangle;html=1;whiteSpace=wrap;connectable=0;fillColor=none;top=0;left=0;bottom=0;right=0;overflow=hidden;strokeColor=inherit;fontSize=16;" parent="o9QMIviWaqzwO_FaFgC8-67" vertex="1">
          <mxGeometry width="42" height="30" as="geometry">
            <mxRectangle width="42" height="30" as="alternateBounds" />
          </mxGeometry>
        </mxCell>
        <mxCell id="o9QMIviWaqzwO_FaFgC8-69" value="policy_pic_name" style="shape=partialRectangle;html=1;whiteSpace=wrap;connectable=0;fillColor=none;top=0;left=0;bottom=0;right=0;align=left;spacingLeft=6;overflow=hidden;strokeColor=inherit;fontSize=16;" parent="o9QMIviWaqzwO_FaFgC8-67" vertex="1">
          <mxGeometry x="42" width="148" height="30" as="geometry">
            <mxRectangle width="148" height="30" as="alternateBounds" />
          </mxGeometry>
        </mxCell>
        <mxCell id="o9QMIviWaqzwO_FaFgC8-88" style="edgeStyle=orthogonalEdgeStyle;rounded=0;orthogonalLoop=1;jettySize=auto;html=1;entryX=0;entryY=0.5;entryDx=0;entryDy=0;" parent="1" source="o9QMIviWaqzwO_FaFgC8-72" target="o9QMIviWaqzwO_FaFgC8-25" edge="1">
          <mxGeometry relative="1" as="geometry" />
        </mxCell>
        <mxCell id="o9QMIviWaqzwO_FaFgC8-72" value="tb_policy_beneficiary" style="shape=table;startSize=30;container=1;collapsible=0;childLayout=tableLayout;fixedRows=1;rowLines=0;fontStyle=0;strokeColor=default;fontSize=16;" parent="1" vertex="1">
          <mxGeometry x="120" y="590" width="186" height="120" as="geometry" />
        </mxCell>
        <mxCell id="o9QMIviWaqzwO_FaFgC8-73" value="" style="shape=tableRow;horizontal=0;startSize=0;swimlaneHead=0;swimlaneBody=0;top=0;left=0;bottom=0;right=0;collapsible=0;dropTarget=0;fillColor=none;points=[[0,0.5],[1,0.5]];portConstraint=eastwest;strokeColor=inherit;fontSize=16;" parent="o9QMIviWaqzwO_FaFgC8-72" vertex="1">
          <mxGeometry y="30" width="186" height="30" as="geometry" />
        </mxCell>
        <mxCell id="o9QMIviWaqzwO_FaFgC8-74" value="1" style="shape=partialRectangle;html=1;whiteSpace=wrap;connectable=0;fillColor=none;top=0;left=0;bottom=0;right=0;overflow=hidden;pointerEvents=1;strokeColor=inherit;fontSize=16;" parent="o9QMIviWaqzwO_FaFgC8-73" vertex="1">
          <mxGeometry width="41" height="30" as="geometry">
            <mxRectangle width="41" height="30" as="alternateBounds" />
          </mxGeometry>
        </mxCell>
        <mxCell id="o9QMIviWaqzwO_FaFgC8-75" value="id" style="shape=partialRectangle;html=1;whiteSpace=wrap;connectable=0;fillColor=none;top=0;left=0;bottom=0;right=0;align=left;spacingLeft=6;overflow=hidden;strokeColor=inherit;fontSize=16;" parent="o9QMIviWaqzwO_FaFgC8-73" vertex="1">
          <mxGeometry x="41" width="145" height="30" as="geometry">
            <mxRectangle width="145" height="30" as="alternateBounds" />
          </mxGeometry>
        </mxCell>
        <mxCell id="o9QMIviWaqzwO_FaFgC8-76" value="" style="shape=tableRow;horizontal=0;startSize=0;swimlaneHead=0;swimlaneBody=0;top=0;left=0;bottom=0;right=0;collapsible=0;dropTarget=0;fillColor=none;points=[[0,0.5],[1,0.5]];portConstraint=eastwest;strokeColor=inherit;fontSize=16;" parent="o9QMIviWaqzwO_FaFgC8-72" vertex="1">
          <mxGeometry y="60" width="186" height="30" as="geometry" />
        </mxCell>
        <mxCell id="o9QMIviWaqzwO_FaFgC8-77" value="2" style="shape=partialRectangle;html=1;whiteSpace=wrap;connectable=0;fillColor=none;top=0;left=0;bottom=0;right=0;overflow=hidden;strokeColor=inherit;fontSize=16;" parent="o9QMIviWaqzwO_FaFgC8-76" vertex="1">
          <mxGeometry width="41" height="30" as="geometry">
            <mxRectangle width="41" height="30" as="alternateBounds" />
          </mxGeometry>
        </mxCell>
        <mxCell id="o9QMIviWaqzwO_FaFgC8-78" value="policy_id detail_id&amp;nbsp;" style="shape=partialRectangle;html=1;whiteSpace=wrap;connectable=0;fillColor=none;top=0;left=0;bottom=0;right=0;align=left;spacingLeft=6;overflow=hidden;strokeColor=inherit;fontSize=16;" parent="o9QMIviWaqzwO_FaFgC8-76" vertex="1">
          <mxGeometry x="41" width="145" height="30" as="geometry">
            <mxRectangle width="145" height="30" as="alternateBounds" />
          </mxGeometry>
        </mxCell>
        <mxCell id="o9QMIviWaqzwO_FaFgC8-79" value="" style="shape=tableRow;horizontal=0;startSize=0;swimlaneHead=0;swimlaneBody=0;top=0;left=0;bottom=0;right=0;collapsible=0;dropTarget=0;fillColor=none;points=[[0,0.5],[1,0.5]];portConstraint=eastwest;strokeColor=inherit;fontSize=16;" parent="o9QMIviWaqzwO_FaFgC8-72" vertex="1">
          <mxGeometry y="90" width="186" height="30" as="geometry" />
        </mxCell>
        <mxCell id="o9QMIviWaqzwO_FaFgC8-80" value="3" style="shape=partialRectangle;html=1;whiteSpace=wrap;connectable=0;fillColor=none;top=0;left=0;bottom=0;right=0;overflow=hidden;strokeColor=inherit;fontSize=16;" parent="o9QMIviWaqzwO_FaFgC8-79" vertex="1">
          <mxGeometry width="41" height="30" as="geometry">
            <mxRectangle width="41" height="30" as="alternateBounds" />
          </mxGeometry>
        </mxCell>
        <mxCell id="o9QMIviWaqzwO_FaFgC8-81" value="ins_type" style="shape=partialRectangle;html=1;whiteSpace=wrap;connectable=0;fillColor=none;top=0;left=0;bottom=0;right=0;align=left;spacingLeft=6;overflow=hidden;strokeColor=inherit;fontSize=16;" parent="o9QMIviWaqzwO_FaFgC8-79" vertex="1">
          <mxGeometry x="41" width="145" height="30" as="geometry">
            <mxRectangle width="145" height="30" as="alternateBounds" />
          </mxGeometry>
        </mxCell>
        <mxCell id="o9QMIviWaqzwO_FaFgC8-90" value="tb_insure_company" style="shape=table;startSize=30;container=1;collapsible=0;childLayout=tableLayout;fixedRows=1;rowLines=0;fontStyle=0;strokeColor=default;fontSize=16;" parent="1" vertex="1">
          <mxGeometry x="730" y="460" width="186" height="120" as="geometry" />
        </mxCell>
        <mxCell id="o9QMIviWaqzwO_FaFgC8-91" value="" style="shape=tableRow;horizontal=0;startSize=0;swimlaneHead=0;swimlaneBody=0;top=0;left=0;bottom=0;right=0;collapsible=0;dropTarget=0;fillColor=none;points=[[0,0.5],[1,0.5]];portConstraint=eastwest;strokeColor=inherit;fontSize=16;" parent="o9QMIviWaqzwO_FaFgC8-90" vertex="1">
          <mxGeometry y="30" width="186" height="30" as="geometry" />
        </mxCell>
        <mxCell id="o9QMIviWaqzwO_FaFgC8-92" value="1" style="shape=partialRectangle;html=1;whiteSpace=wrap;connectable=0;fillColor=none;top=0;left=0;bottom=0;right=0;overflow=hidden;pointerEvents=1;strokeColor=inherit;fontSize=16;" parent="o9QMIviWaqzwO_FaFgC8-91" vertex="1">
          <mxGeometry width="41" height="30" as="geometry">
            <mxRectangle width="41" height="30" as="alternateBounds" />
          </mxGeometry>
        </mxCell>
        <mxCell id="o9QMIviWaqzwO_FaFgC8-93" value="id" style="shape=partialRectangle;html=1;whiteSpace=wrap;connectable=0;fillColor=none;top=0;left=0;bottom=0;right=0;align=left;spacingLeft=6;overflow=hidden;strokeColor=inherit;fontSize=16;" parent="o9QMIviWaqzwO_FaFgC8-91" vertex="1">
          <mxGeometry x="41" width="145" height="30" as="geometry">
            <mxRectangle width="145" height="30" as="alternateBounds" />
          </mxGeometry>
        </mxCell>
        <mxCell id="o9QMIviWaqzwO_FaFgC8-94" value="" style="shape=tableRow;horizontal=0;startSize=0;swimlaneHead=0;swimlaneBody=0;top=0;left=0;bottom=0;right=0;collapsible=0;dropTarget=0;fillColor=none;points=[[0,0.5],[1,0.5]];portConstraint=eastwest;strokeColor=inherit;fontSize=16;" parent="o9QMIviWaqzwO_FaFgC8-90" vertex="1">
          <mxGeometry y="60" width="186" height="30" as="geometry" />
        </mxCell>
        <mxCell id="o9QMIviWaqzwO_FaFgC8-95" value="2" style="shape=partialRectangle;html=1;whiteSpace=wrap;connectable=0;fillColor=none;top=0;left=0;bottom=0;right=0;overflow=hidden;strokeColor=inherit;fontSize=16;" parent="o9QMIviWaqzwO_FaFgC8-94" vertex="1">
          <mxGeometry width="41" height="30" as="geometry">
            <mxRectangle width="41" height="30" as="alternateBounds" />
          </mxGeometry>
        </mxCell>
        <mxCell id="o9QMIviWaqzwO_FaFgC8-96" value="policy_no" style="shape=partialRectangle;html=1;whiteSpace=wrap;connectable=0;fillColor=none;top=0;left=0;bottom=0;right=0;align=left;spacingLeft=6;overflow=hidden;strokeColor=inherit;fontSize=16;" parent="o9QMIviWaqzwO_FaFgC8-94" vertex="1">
          <mxGeometry x="41" width="145" height="30" as="geometry">
            <mxRectangle width="145" height="30" as="alternateBounds" />
          </mxGeometry>
        </mxCell>
        <mxCell id="o9QMIviWaqzwO_FaFgC8-97" value="" style="shape=tableRow;horizontal=0;startSize=0;swimlaneHead=0;swimlaneBody=0;top=0;left=0;bottom=0;right=0;collapsible=0;dropTarget=0;fillColor=none;points=[[0,0.5],[1,0.5]];portConstraint=eastwest;strokeColor=inherit;fontSize=16;" parent="o9QMIviWaqzwO_FaFgC8-90" vertex="1">
          <mxGeometry y="90" width="186" height="30" as="geometry" />
        </mxCell>
        <mxCell id="o9QMIviWaqzwO_FaFgC8-98" value="3" style="shape=partialRectangle;html=1;whiteSpace=wrap;connectable=0;fillColor=none;top=0;left=0;bottom=0;right=0;overflow=hidden;strokeColor=inherit;fontSize=16;" parent="o9QMIviWaqzwO_FaFgC8-97" vertex="1">
          <mxGeometry width="41" height="30" as="geometry">
            <mxRectangle width="41" height="30" as="alternateBounds" />
          </mxGeometry>
        </mxCell>
        <mxCell id="o9QMIviWaqzwO_FaFgC8-99" value="ins_type" style="shape=partialRectangle;html=1;whiteSpace=wrap;connectable=0;fillColor=none;top=0;left=0;bottom=0;right=0;align=left;spacingLeft=6;overflow=hidden;strokeColor=inherit;fontSize=16;" parent="o9QMIviWaqzwO_FaFgC8-97" vertex="1">
          <mxGeometry x="41" width="145" height="30" as="geometry">
            <mxRectangle width="145" height="30" as="alternateBounds" />
          </mxGeometry>
        </mxCell>
        <mxCell id="o9QMIviWaqzwO_FaFgC8-101" value="tb_insured" style="shape=table;startSize=30;container=1;collapsible=0;childLayout=tableLayout;fixedRows=1;rowLines=0;fontStyle=0;strokeColor=default;fontSize=16;" parent="1" vertex="1">
          <mxGeometry x="370" y="740" width="186" height="120" as="geometry" />
        </mxCell>
        <mxCell id="o9QMIviWaqzwO_FaFgC8-102" value="" style="shape=tableRow;horizontal=0;startSize=0;swimlaneHead=0;swimlaneBody=0;top=0;left=0;bottom=0;right=0;collapsible=0;dropTarget=0;fillColor=none;points=[[0,0.5],[1,0.5]];portConstraint=eastwest;strokeColor=inherit;fontSize=16;" parent="o9QMIviWaqzwO_FaFgC8-101" vertex="1">
          <mxGeometry y="30" width="186" height="30" as="geometry" />
        </mxCell>
        <mxCell id="o9QMIviWaqzwO_FaFgC8-103" value="1" style="shape=partialRectangle;html=1;whiteSpace=wrap;connectable=0;fillColor=none;top=0;left=0;bottom=0;right=0;overflow=hidden;pointerEvents=1;strokeColor=inherit;fontSize=16;" parent="o9QMIviWaqzwO_FaFgC8-102" vertex="1">
          <mxGeometry width="41" height="30" as="geometry">
            <mxRectangle width="41" height="30" as="alternateBounds" />
          </mxGeometry>
        </mxCell>
        <mxCell id="o9QMIviWaqzwO_FaFgC8-104" value="id" style="shape=partialRectangle;html=1;whiteSpace=wrap;connectable=0;fillColor=none;top=0;left=0;bottom=0;right=0;align=left;spacingLeft=6;overflow=hidden;strokeColor=inherit;fontSize=16;" parent="o9QMIviWaqzwO_FaFgC8-102" vertex="1">
          <mxGeometry x="41" width="145" height="30" as="geometry">
            <mxRectangle width="145" height="30" as="alternateBounds" />
          </mxGeometry>
        </mxCell>
        <mxCell id="o9QMIviWaqzwO_FaFgC8-105" value="" style="shape=tableRow;horizontal=0;startSize=0;swimlaneHead=0;swimlaneBody=0;top=0;left=0;bottom=0;right=0;collapsible=0;dropTarget=0;fillColor=none;points=[[0,0.5],[1,0.5]];portConstraint=eastwest;strokeColor=inherit;fontSize=16;" parent="o9QMIviWaqzwO_FaFgC8-101" vertex="1">
          <mxGeometry y="60" width="186" height="30" as="geometry" />
        </mxCell>
        <mxCell id="o9QMIviWaqzwO_FaFgC8-106" value="2" style="shape=partialRectangle;html=1;whiteSpace=wrap;connectable=0;fillColor=none;top=0;left=0;bottom=0;right=0;overflow=hidden;strokeColor=inherit;fontSize=16;" parent="o9QMIviWaqzwO_FaFgC8-105" vertex="1">
          <mxGeometry width="41" height="30" as="geometry">
            <mxRectangle width="41" height="30" as="alternateBounds" />
          </mxGeometry>
        </mxCell>
        <mxCell id="o9QMIviWaqzwO_FaFgC8-107" value="policy_id detail_id&amp;nbsp;" style="shape=partialRectangle;html=1;whiteSpace=wrap;connectable=0;fillColor=none;top=0;left=0;bottom=0;right=0;align=left;spacingLeft=6;overflow=hidden;strokeColor=inherit;fontSize=16;" parent="o9QMIviWaqzwO_FaFgC8-105" vertex="1">
          <mxGeometry x="41" width="145" height="30" as="geometry">
            <mxRectangle width="145" height="30" as="alternateBounds" />
          </mxGeometry>
        </mxCell>
        <mxCell id="o9QMIviWaqzwO_FaFgC8-108" value="" style="shape=tableRow;horizontal=0;startSize=0;swimlaneHead=0;swimlaneBody=0;top=0;left=0;bottom=0;right=0;collapsible=0;dropTarget=0;fillColor=none;points=[[0,0.5],[1,0.5]];portConstraint=eastwest;strokeColor=inherit;fontSize=16;" parent="o9QMIviWaqzwO_FaFgC8-101" vertex="1">
          <mxGeometry y="90" width="186" height="30" as="geometry" />
        </mxCell>
        <mxCell id="o9QMIviWaqzwO_FaFgC8-109" value="3" style="shape=partialRectangle;html=1;whiteSpace=wrap;connectable=0;fillColor=none;top=0;left=0;bottom=0;right=0;overflow=hidden;strokeColor=inherit;fontSize=16;" parent="o9QMIviWaqzwO_FaFgC8-108" vertex="1">
          <mxGeometry width="41" height="30" as="geometry">
            <mxRectangle width="41" height="30" as="alternateBounds" />
          </mxGeometry>
        </mxCell>
        <mxCell id="o9QMIviWaqzwO_FaFgC8-110" value="ins_type" style="shape=partialRectangle;html=1;whiteSpace=wrap;connectable=0;fillColor=none;top=0;left=0;bottom=0;right=0;align=left;spacingLeft=6;overflow=hidden;strokeColor=inherit;fontSize=16;" parent="o9QMIviWaqzwO_FaFgC8-108" vertex="1">
          <mxGeometry x="41" width="145" height="30" as="geometry">
            <mxRectangle width="145" height="30" as="alternateBounds" />
          </mxGeometry>
        </mxCell>
        <mxCell id="o9QMIviWaqzwO_FaFgC8-116" value="tb_policy_ext" style="shape=table;startSize=30;container=1;collapsible=0;childLayout=tableLayout;fixedRows=1;rowLines=0;fontStyle=0;strokeColor=default;fontSize=16;" parent="1" vertex="1">
          <mxGeometry x="730" y="670" width="180" height="120" as="geometry" />
        </mxCell>
        <mxCell id="o9QMIviWaqzwO_FaFgC8-117" value="" style="shape=tableRow;horizontal=0;startSize=0;swimlaneHead=0;swimlaneBody=0;top=0;left=0;bottom=0;right=0;collapsible=0;dropTarget=0;fillColor=none;points=[[0,0.5],[1,0.5]];portConstraint=eastwest;strokeColor=inherit;fontSize=16;" parent="o9QMIviWaqzwO_FaFgC8-116" vertex="1">
          <mxGeometry y="30" width="180" height="30" as="geometry" />
        </mxCell>
        <mxCell id="o9QMIviWaqzwO_FaFgC8-118" value="1" style="shape=partialRectangle;html=1;whiteSpace=wrap;connectable=0;fillColor=none;top=0;left=0;bottom=0;right=0;overflow=hidden;pointerEvents=1;strokeColor=inherit;fontSize=16;" parent="o9QMIviWaqzwO_FaFgC8-117" vertex="1">
          <mxGeometry width="40" height="30" as="geometry">
            <mxRectangle width="40" height="30" as="alternateBounds" />
          </mxGeometry>
        </mxCell>
        <mxCell id="o9QMIviWaqzwO_FaFgC8-119" value="id" style="shape=partialRectangle;html=1;whiteSpace=wrap;connectable=0;fillColor=none;top=0;left=0;bottom=0;right=0;align=left;spacingLeft=6;overflow=hidden;strokeColor=inherit;fontSize=16;" parent="o9QMIviWaqzwO_FaFgC8-117" vertex="1">
          <mxGeometry x="40" width="140" height="30" as="geometry">
            <mxRectangle width="140" height="30" as="alternateBounds" />
          </mxGeometry>
        </mxCell>
        <mxCell id="o9QMIviWaqzwO_FaFgC8-120" value="" style="shape=tableRow;horizontal=0;startSize=0;swimlaneHead=0;swimlaneBody=0;top=0;left=0;bottom=0;right=0;collapsible=0;dropTarget=0;fillColor=none;points=[[0,0.5],[1,0.5]];portConstraint=eastwest;strokeColor=inherit;fontSize=16;" parent="o9QMIviWaqzwO_FaFgC8-116" vertex="1">
          <mxGeometry y="60" width="180" height="30" as="geometry" />
        </mxCell>
        <mxCell id="o9QMIviWaqzwO_FaFgC8-121" value="2" style="shape=partialRectangle;html=1;whiteSpace=wrap;connectable=0;fillColor=none;top=0;left=0;bottom=0;right=0;overflow=hidden;strokeColor=inherit;fontSize=16;" parent="o9QMIviWaqzwO_FaFgC8-120" vertex="1">
          <mxGeometry width="40" height="30" as="geometry">
            <mxRectangle width="40" height="30" as="alternateBounds" />
          </mxGeometry>
        </mxCell>
        <mxCell id="o9QMIviWaqzwO_FaFgC8-122" value="policy_id detail_id&amp;nbsp;" style="shape=partialRectangle;html=1;whiteSpace=wrap;connectable=0;fillColor=none;top=0;left=0;bottom=0;right=0;align=left;spacingLeft=6;overflow=hidden;strokeColor=inherit;fontSize=16;" parent="o9QMIviWaqzwO_FaFgC8-120" vertex="1">
          <mxGeometry x="40" width="140" height="30" as="geometry">
            <mxRectangle width="140" height="30" as="alternateBounds" />
          </mxGeometry>
        </mxCell>
        <mxCell id="o9QMIviWaqzwO_FaFgC8-123" value="" style="shape=tableRow;horizontal=0;startSize=0;swimlaneHead=0;swimlaneBody=0;top=0;left=0;bottom=0;right=0;collapsible=0;dropTarget=0;fillColor=none;points=[[0,0.5],[1,0.5]];portConstraint=eastwest;strokeColor=inherit;fontSize=16;" parent="o9QMIviWaqzwO_FaFgC8-116" vertex="1">
          <mxGeometry y="90" width="180" height="30" as="geometry" />
        </mxCell>
        <mxCell id="o9QMIviWaqzwO_FaFgC8-124" value="3" style="shape=partialRectangle;html=1;whiteSpace=wrap;connectable=0;fillColor=none;top=0;left=0;bottom=0;right=0;overflow=hidden;strokeColor=inherit;fontSize=16;" parent="o9QMIviWaqzwO_FaFgC8-123" vertex="1">
          <mxGeometry width="40" height="30" as="geometry">
            <mxRectangle width="40" height="30" as="alternateBounds" />
          </mxGeometry>
        </mxCell>
        <mxCell id="o9QMIviWaqzwO_FaFgC8-125" value="applicant" style="shape=partialRectangle;html=1;whiteSpace=wrap;connectable=0;fillColor=none;top=0;left=0;bottom=0;right=0;align=left;spacingLeft=6;overflow=hidden;strokeColor=inherit;fontSize=16;" parent="o9QMIviWaqzwO_FaFgC8-123" vertex="1">
          <mxGeometry x="40" width="140" height="30" as="geometry">
            <mxRectangle width="140" height="30" as="alternateBounds" />
          </mxGeometry>
        </mxCell>
        <mxCell id="o9QMIviWaqzwO_FaFgC8-126" style="edgeStyle=orthogonalEdgeStyle;rounded=0;orthogonalLoop=1;jettySize=auto;html=1;" parent="1" source="o9QMIviWaqzwO_FaFgC8-28" target="o9QMIviWaqzwO_FaFgC8-116" edge="1">
          <mxGeometry relative="1" as="geometry" />
        </mxCell>
      </root>
    </mxGraphModel>
  </diagram>
</mxfile>
